<svg width="10" height="13" viewBox="0 0 10 13" fill="none" xmlns="http://www.w3.org/2000/svg">
<path d="M0.736416 3.57438C0.612718 3.57438 0.518681 3.68554 0.539182 3.80753L2 12.5H8L9.46082 3.80753C9.48132 3.68554 9.38728 3.57438 9.26358 3.57438H0.736416ZM9.8 1.49174C9.91046 1.49174 10 1.58128 10 1.69174V2.28347C10 2.39393 9.91046 2.48347 9.8 2.48347H0.2C0.0895429 2.48347 0 2.39393 0 2.28347V1.69174C0 1.58128 0.0895431 1.49174 0.2 1.49174H2.8555C3.3055 1.49174 3.671 0.946777 3.671 0.5H6.329C6.329 0.946777 6.694 1.49174 7.1445 1.49174H9.8Z" fill="#4A4844"/>
</svg>
