<svg id="Capa_1" data-name="Capa 1" xmlns="http://www.w3.org/2000/svg" viewBox="0 0 1728 1296"><defs><style>.cls-1,.cls-2,.cls-3{fill:#027186;}.cls-2{font-size:337.7px;}.cls-2,.cls-3{font-family:MyriadHebrew-Regular, Myriad Hebrew;}.cls-3{font-size:138.93px;}.cls-4{fill:#0399b1;}.cls-5{fill:none;stroke:#44b3bd;stroke-miterlimit:10;}</style></defs><circle cx="864" cy="648" r="557.62"/><path class="cls-1" d="M667.57,848.09c.76.71,1.58,1.36,2.4,2l2.52,1.83,2.63,1.68,1.32.83,1.36.76,2.72,1.51,1.36.75,1.4.68,5.62,2.67,5.76,2.34c1,.39,1.91.79,2.88,1.15l3,1,5.88,2c1,.35,2,.61,3,.88l3,.82,6,1.65c2,.55,4,.91,6,1.38l6.06,1.32c1,.21,2,.45,3,.64l3.06.51,12.23,2,12.32,1.42c2,.22,4.1.5,6.16.68l6.18.42,12.36.84c4.13.13,8.27.17,12.4.23l6.19,0c2.07,0,4.12.06,6.2-.06l12.39-.5,6.18-.22c2.06-.09,4.12-.11,6.18-.27,8.25-.58,16.49-.9,24.72-1.17h.6c8.24.09,16.47.28,24.71.72l24.73.73c2.07.09,4.12,0,6.18,0l6.18-.09c4.13-.08,8.26-.12,12.38-.26l12.34-.78,6.18-.39c2.06-.17,4.09-.44,6.14-.65l12.31-1.36L984,873.82l3.06-.49c1-.18,2-.42,3-.63l6-1.28c2-.46,4.06-.81,6-1.35l6-1.61,3-.81c1-.27,2-.52,3-.87l5.88-1.94,2.94-1c1-.35,1.93-.74,2.89-1.11l5.78-2.26,5.64-2.59,1.41-.66,1.37-.73,2.74-1.47,1.37-.74,1.32-.82,2.65-1.63,2.55-1.8c.83-.63,1.66-1.26,2.43-2-.7.77-1.47,1.48-2.24,2.19l-2.39,2-2.5,1.9-1.26.95-1.3.87-2.63,1.75-1.31.87-1.36.8-5.46,3.16-5.63,2.84c-.94.47-1.88,1-2.83,1.41l-2.9,1.25-5.81,2.48c-1,.44-2,.79-2.94,1.15l-3,1.08-5.94,2.16c-2,.73-4,1.26-6,1.9l-6.05,1.84c-1,.3-2,.63-3,.9l-3.07.77-12.28,3.06-12.41,2.46c-2.07.39-4.14.84-6.22,1.19l-6.25.94-12.52,1.88c-4.19.51-8.38.89-12.58,1.36l-6.29.69c-2.1.21-4.2.5-6.31.6l-12.62.88c-2.11.14-4.21.31-6.32.43s-4.22.29-6.33.29c-8.42.13-16.85,0-25.28-.2h.6c-8.44,0-16.87,0-25.29-.25-2.1,0-4.21-.2-6.32-.36l-6.31-.48-12.61-1c-2.1-.13-4.19-.46-6.29-.69l-6.29-.73c-4.18-.49-8.37-.88-12.55-1.4l-12.5-1.81-6.25-.91c-2.07-.34-4.14-.78-6.21-1.17l-12.39-2.39-12.27-3-3.06-.75c-1-.26-2-.59-3-.88l-6-1.81c-2-.63-4-1.15-6-1.87l-5.94-2.13-3-1.06c-1-.36-2-.7-2.94-1.13l-5.81-2.45-2.9-1.23c-.95-.44-1.88-.93-2.83-1.38l-5.65-2.76-5.49-3.08-1.36-.78-1.32-.85-2.64-1.71-1.32-.85-1.26-.93-2.53-1.86-2.41-2C669.05,849.55,668.28,848.85,667.57,848.09Z"/><text class="cls-2" transform="translate(771.21 808.27)">&amp;</text><text class="cls-3" transform="translate(962.93 801.42)">3D</text><text class="cls-3" transform="translate(585.02 801.42)">MK</text><path class="cls-1" d="M1139.9,399.18a2.89,2.89,0,0,0,4,3.83,3,3,0,0,1,1.38-.35,2.9,2.9,0,0,1,2.57,4.18,68.25,68.25,0,0,1-28.65,30.3,4.76,4.76,0,0,0-2.56,5.13c.92,3.71,6,2.89,9.09,1s6.91-3.89,9.45-1.55c1.57,7.2-3.12,14.46-9,18.87s-13,6.83-19.39,10.57a31.46,31.46,0,0,0-10.06,8.9,5,5,0,0,0,4.1,7.82l2.54,0a5,5,0,0,1,4,7.92l-11.59,15.6c-2.48,3.35-5,6.82-6,10.87s0,8.87,3.45,11.22a7,7,0,0,0,6.7.43,6.28,6.28,0,0,1,7.57,1.62l.09.11a6.09,6.09,0,0,1-1.1,8.61A47.57,47.57,0,0,0,1088,577a27.53,27.53,0,0,1-1.72,7.43c-3.1-2.91-6.29-5.73-9.58-8.42,3.64-15.1,1.79-38,2.26-55.93.6-23.39,18.59-70.81,39.6-99.59s7.2-73.22,7.2-73.22-13.79,10.81-21,27.61-22.81,40.19-54,78c-21.09,25.56-27.36,66.59-29.21,90.49q-4.26-1.71-8.61-3.19c.08-.6.13-1.2.17-1.78a40.52,40.52,0,0,0-6.83-24.75c-3.77-5.51-8.87-10-12.86-15.36-2.92-3.93-5.23-8.65-5.62-13.43a2.94,2.94,0,0,1,4.53-2.65l15.12,9.56a2.94,2.94,0,0,0,4.48-2l6.69-43.76a2.94,2.94,0,0,1,4.42-2.09c4.39,2.65,7.6,11.05,14.43,8.6a8.16,8.16,0,0,0,3.33-2.27c2.81-3.23,3.3-7.49,3.71-11.58.75-7.26,1.47-14.52,2.22-21.78.28-2.65.6-5.47,2.69-7.4a4.08,4.08,0,0,1,4.57-.8c5.21,2.58-1.77,12.83,6,15.55a7.26,7.26,0,0,0,5.82-.47c3.94-2.14,5.56-6.62,6.5-10.88,2-9,1.75-18.26,1-27.48a4.59,4.59,0,0,1,7.86-3.56.43.43,0,0,1,.15.15,4.59,4.59,0,0,0,7.73-2.1c2.41-9.27,5.15-18.48,8.27-27.55a4.52,4.52,0,0,1,5.88-2.87,6.64,6.64,0,0,0,4.46.2c3.4-1.1,5.68-4.18,7.84-7,3-3.92,7-8,12.94-5.54a12.19,12.19,0,0,1,5.58,5,50.47,50.47,0,0,1,6.78,32.41,15.65,15.65,0,0,0,6,.95,2.89,2.89,0,0,1,2.78,4.14Z"/><path class="cls-1" d="M1339.74,491.59v.11c-.21,6.39-5.79,12.15-11.89,14.86-7,3.12-14.92,3.68-22,6.59-4.84,2-9.45,5.66-11.6,10.19a1.94,1.94,0,0,0,2.8,2.45,9.58,9.58,0,0,1,6.39-1.25,9.75,9.75,0,0,1,7.82,8.88c.36,8-8.74,12.75-16.54,14.49-6.38,1.42-13.74,2.74-18.14,7.11a2,2,0,0,0,1.34,3.38l9.67.08a2,2,0,0,1,1.44,3.26,51.39,51.39,0,0,1-24.2,14.68c-3.3.87-6.81,1.49-9.14,4.29a5.14,5.14,0,0,0-.69,5.84c2.31,3.92,8.1,1.5,13,1.48a3.31,3.31,0,0,1,2.74,5.17c-4.57,6.64-14,9.52-22.27,11.33-6,1.31-12.67,3-17.71,6.35a3.3,3.3,0,0,0,1.08,6,7.27,7.27,0,0,1,5.34,4.91,9.19,9.19,0,0,1-3.83,10.44,26.82,26.82,0,0,1-7.43,2.74l-25.85,6.53a4.71,4.71,0,0,0-3.62,3.81c-.94,6.65,12.91,4,13.31,10.77a5.36,5.36,0,0,1-5.29,5.44L1138.72,664c-.22-.63-.46-1.27-.71-1.9,42.1-16.06,72.12-49.75,90.3-61,20.24-12.51,88.93-117.76,90-119.4l-46.86,21.58c-30.65,9-68.34,73.81-95.93,93-16.8,11.69-43.39,16.93-61.89,19.64q-2.57-3.68-5.32-7.21a23.5,23.5,0,0,0,4.45-3.62,26,26,0,0,0,6-24.25,4,4,0,0,1,4.64-5,6.48,6.48,0,0,1,3.72,2.24c2.29,3,2.31,7,2.44,10.77.15,4.91,1,10.53,7,11.93a10.7,10.7,0,0,0,7.52-1.21,30.9,30.9,0,0,0,15.4-21.06c.88-4.57.82-9.56,3.46-13.4a8.42,8.42,0,0,1,7.82-3.33,3.49,3.49,0,0,1,2.65,4.46c-.82,3.23,1.92,7.29,5.49,7.77,4.27.6,8.3-2.56,10.36-6.35s2.65-8.15,3.62-12.37a65.35,65.35,0,0,1,16.2-30.13.81.81,0,0,1,1.4.56l.19,8.15a.82.82,0,0,0,1.61.19c2.8-9.72,8.3-18.65,13.7-27.33,2.54-4.09,5.56-8.51,10.25-9.57a7.39,7.39,0,0,1,6.44,2.05,4.82,4.82,0,0,0,6.87,0,105.46,105.46,0,0,1,28.13-20.71,3,3,0,0,1,4.24,2.21,2.94,2.94,0,0,0,2.91,2.5,3.13,3.13,0,0,0,1.14-.23c4.91-2,8.7-7.33,11.42-12,2.24-3.88,5-8,8.57-10a2.9,2.9,0,0,1,4.22,2.62c-.19,3.94,3.53,8.62,7.75,9.65,4.53,1.12,8.62-.43,12.73-2.48a2.94,2.94,0,0,1,4.18,2,21.78,21.78,0,0,1-.41,11.75,3.06,3.06,0,0,0,2.58,4.08A3.06,3.06,0,0,1,1339.74,491.59Z"/><path class="cls-1" d="M1401,690.51a18,18,0,0,1-13,9,1.51,1.51,0,0,0-.69,2.75,40.22,40.22,0,0,1,7.71,6.49,1.52,1.52,0,0,1-.61,2.5,34.54,34.54,0,0,1-8.93,1.85,1.5,1.5,0,0,0-.84,2.67,14.73,14.73,0,0,1,4.28,5.58,1.52,1.52,0,0,1-2.13,1.89,98,98,0,0,0-31.1-9.48,2.84,2.84,0,0,0-2.52,4.64l.07.1c3.55,4.38,1,13.51-6.14,10.58a10.38,10.38,0,0,1-4-3.19c-9-11-25.25-14.8-38.4-9.86a2.79,2.79,0,0,0-1,4.48,144.74,144.74,0,0,1,10.77,13.67,2.81,2.81,0,0,1-1.4,4.24c-6.76,2.12-14.81-1-21.06-5.06-7.28-4.69-14.47-10.7-23.13-11-6.83-.24-13.2,3.19-19.17,6.52-1.79,1-3.81,2.31-4,4.35-.28,2.93,3.23,4.63,6.13,5.15,3.09.58,6.94,1.4,7.39,4.76a4.51,4.51,0,0,1-1.81,4c-2.52,2-5.66,1.74-8.63,1.48l-26.58-2.28c-2.86-.24-5.79-.47-8.49.45-4.11,1.4-7.55,6.21-2.86,10.86a12.12,12.12,0,0,0,6.12,3.19c3.1.66,7.19,2.65,9,5.38a3.52,3.52,0,0,1-2.11,5.34c-6.49,1.57-13.51.3-20.16-1.1-7.6-1.61-15.59-3.33-23-1s-13.68,10.29-11.18,17.64c1.21,3.57,4.31,6.74,2,10.88a8.42,8.42,0,0,1-6.74,4.07,32,32,0,0,1-23.17-7.48,196.9,196.9,0,0,0,5.58-22.39c30.66-9,70.75-41.79,87.65-48.14,19.19-7.21,132-27,132-27-57.11-16.24-176.49,4.29-217.44,12.17-.34-2.73-.73-5.45-1.16-8.14a7.15,7.15,0,0,0,1.14.11,45.66,45.66,0,0,0,13.14-1.66,15.87,15.87,0,0,0,8.25-5.47c2.05-2.63,3.32-5.79,5-8.72s3.73-5.8,6.79-7.17c1.18-.52,2.67-.74,3.61.14,1.28,1.19.48,3.32-.55,4.74s-2.24,2.78-2.67,4.48c-.56,2.33.13,4.55,3.92,4.2a9.53,9.53,0,0,0,4.26-1.59l28.95-19a1,1,0,0,1,1.44,1.25A13.14,13.14,0,0,0,1220,679a6.92,6.92,0,0,0,2.09,4.74c3.32,3.06,8.1,1.21,11.87-.67l29.22-14.58a6.42,6.42,0,0,1,7.07.73c4.67,4.1-2.3,9.59,1.68,13.64a5.94,5.94,0,0,0,6.24,1.23L1315,670.8a1,1,0,0,1,1.16,1.61,7.92,7.92,0,0,0-1.64,3.94,4.67,4.67,0,0,0,1.25,3.82c1.86,1.81,4.37,1.08,6.55.36,8.75-3,16.13-9.37,24.1-14.1,2.3-1.36,4.76-2.76,7.56-2.09a3.92,3.92,0,0,1,2.93,2.84c.56,2.69-2,4.46-4.29,5.66a25.48,25.48,0,0,0-2.32,1.4,4.8,4.8,0,0,0-1.49,6.66,12.36,12.36,0,0,0,3.92,3.66c3,1.79,6.57,2.44,10,3,12.1,2.09,24.74,3.68,36.57.73A1.52,1.52,0,0,1,1401,690.51Z"/><path class="cls-1" d="M732.79,487.65c-2.61,9.5-8,18.11-11.89,27.22a83.37,83.37,0,0,0-5.86,23c-2.69.82-5.36,1.68-8,2.63,1.7-26.14-8.57-50.91-15.16-61.89-9-15-41.41-54-58.8-80.4S601.28,346,601.28,346s-9,12.6-5.4,44.39S645.07,478,645.07,517.05a215.48,215.48,0,0,0,6.52,53.15c-2.66,2-5.25,4-7.81,6.18-2-5.75-4.07-11.5-8.25-15.83-5.95-6.14-15.21-8.23-20.22-15.66A11.31,11.31,0,0,1,614,534c4-8.9,17.4-3,21-11a7.91,7.91,0,0,0-.82-7.53c-3.08-4.77-8.42-6.42-12.94-9.26-6.51-4.06-11.48-11.29-11.09-19a15.59,15.59,0,0,1,10.2-13.54,2.83,2.83,0,0,0,.89-4.92A35.24,35.24,0,0,0,611,464c-5.5-1.78-11.46-3.59-15-8.14s-2.84-12.81,2.7-14.52c2.64-.81,5.92-.08,7.62-2.56a4.7,4.7,0,0,0-1.19-6.24c-3.89-3-8.52-1.71-12.92-1.83-9.22-.24-17.42-8-19-16.95a3.19,3.19,0,0,1,3.72-3.67,11.71,11.71,0,0,0,6.76-.6,6.3,6.3,0,0,0,3.52-3.77c1-3.18-1.19-5.58-3.21-7.66l-15.55-15.9a3.24,3.24,0,0,1,1.38-5.4A16.52,16.52,0,0,0,579.9,368c3.81-8.44,2.43-18.54,7.56-26.64a13.44,13.44,0,0,1,10.59-6.47c6.25-.27,8.21,4.64,11.64,7.89,2.34,2.19,6.26,3.47,8.57,1.29,2-1.9,1.93-5.71,4.71-6.61,3-1,5.58,1.31,5.65,4.41l1,38.55a3.17,3.17,0,0,0,3.17,3.11h.39a3.67,3.67,0,0,0,3.19-4.34c-.78-3.95,2-9.05,6.35-9.83,5.94-1.11,11.63,3.88,13.53,9.61s1,12,.08,17.94c-1,6.83-1.94,14.06,1.42,20.35a3.56,3.56,0,0,0,5.06,1.51c2.16-1.46,1-4.2,1.17-6.5.4-5.5,8.91-7,12.81-3.06s4,10.18,3.15,15.63-2.46,11-1.12,16.39a.48.48,0,0,0,0,.15c1.57,5.86,9.43,6.38,12.49,1.15a8.62,8.62,0,0,1,7.32-4.38c5.37.11,9.74,4.87,11.22,10s.73,10.68-.06,16c-.82,5.66-1.62,11.29-2.44,16.93-.73,4.95-.51,11.61,5.43,12,3.55.26,6.63-2.05,8.23-5.22a12,12,0,0,1,6.65-5.31A4.14,4.14,0,0,1,732.79,487.65Z"/><path class="cls-1" d="M581.47,801.1a79,79,0,0,1-21.25,3.29c-5.88.2-12.11.05-16.82-4a10.13,10.13,0,0,1-3.39-5.8c-1.68-9.62,11.31-10.85,9.18-20.85a11.83,11.83,0,0,0-5.32-7.45c-5.43-3.49-12.06-3.19-18.33-2.82L497,765.09a1,1,0,0,1-.54-1.86l15-8.27a1,1,0,0,0-.56-1.87,209,209,0,0,1-53.5-2.82,1,1,0,0,1-.61-1.61L465,737.8a1.61,1.61,0,0,0,0-1.85c-4.39-5.82-12.88-7.48-20.16-6.18-7.66,1.38-14.56,5.34-21.82,8.14-6.46,2.5-13.82,4.05-20.33,2a1.58,1.58,0,0,1-.58-2.62,110.42,110.42,0,0,0,15.14-18.53,1.57,1.57,0,0,0-2-2.26A77.64,77.64,0,0,1,379,723.87a2,2,0,0,1-1.86-2,1.92,1.92,0,0,1,.17-.8,2,2,0,0,0-1.93-2.78,79,79,0,0,0-34.16,10.36.91.91,0,0,1-1.14-1.4l4.58-5.17a2.91,2.91,0,0,0-3.05-4.72,13.57,13.57,0,0,0-3.67,1.9c-3.23,2.3-8.27,4.57-10.35.67a5.16,5.16,0,0,1,1.66-6.44l18.43-13.79a3,3,0,0,0-1.64-5.44,30.93,30.93,0,0,0-7,.83c-4.52,1-9.28,2.24-13.67.76-5.2-1.75-8.83-9.33-2.78-12.69a9.59,9.59,0,0,1,6.14-.92l27.93,4.6a7.51,7.51,0,0,0,8.68-8.52,58.34,58.34,0,0,1-.73-7.09,2.4,2.4,0,0,1,3.27-2.35l28.49,10.9c3.13,1.21,6.51,2.43,9.78,1.64a6.5,6.5,0,0,0,2.67-1.38,4.29,4.29,0,0,0-1.49-7.28L405,672a1.48,1.48,0,0,1,.53-2.88c5.71,0,11.53,2.41,16.42,5.58,6.61,4.32,12.29,10,19.17,13.82,3.66,2,7.94,3.51,12,1.88a6.76,6.76,0,0,0,4.35-5.39c.41-4-3.18-6.29-5.34-9.24-1.89-2.58-1.89-7.39,1.29-7.9,6.36.09,11.48,5.13,15.45,10.12,4.88,6.12,9.8,13.16,18.54,13.31,5.28.09,9.63-4,8.91-9.26-.55-3.9-4-6.23-7.81-7.75a2,2,0,0,1,.13-3.82c5.4-1.59,12.1.78,16.56,4.72,5.75,5.08,9.41,12.17,15.05,17.4,3.84,3.56,9.39,6,14.41,5.71a3.42,3.42,0,0,0,2.39-5.6,11.88,11.88,0,0,1-2.39-8.23,3,3,0,0,1,4.63-2.26,84.82,84.82,0,0,0,29.14,11.52,40.22,40.22,0,0,0,5.47.54c-1.2,6.12-2.13,12.32-2.74,18.63-37.23-7.6-165.16-31.33-217.69-10.42,0,0,132.21-3.41,220.6,71.46A202.68,202.68,0,0,0,581.47,801.1Z"/><path class="cls-1" d="M924.19,477.6c-1.6,5.72-5.76,10.28-9.32,15A92.51,92.51,0,0,0,899.39,527h-3.94c7.21-42.13-2.67-117.12-18.71-149.62-17.92-36.26-40.49-93.67-40.49-93.67-18,46.67,8.7,128.4,17.71,151.5,6.71,17.19-3,68.8-8,91.79H832.73c0-3,.09-8.29-.51-10.58-1.3-4.93-4.6-9.05-6.94-13.56s-3.64-10.26-.91-14.57c1.93-3.05,6.54-4.07,9.53-2.64a3.75,3.75,0,0,0,5.29-2.21c2.53-3.33,2-8.05-.42-11.48-3.43-4.94-9.69-7.37-14.66-9.91a29.46,29.46,0,0,1-4.67-3,11.71,11.71,0,0,1-4.23-5.2A5.11,5.11,0,0,1,816,449c1.4-1.64,3.85-1.9,6-1.54s4.14,1.24,6.29,1.44a11.12,11.12,0,0,0,4.41-.52A7.37,7.37,0,0,0,836.73,438c-2.52-5.07-7-9.34-11.11-13.4-4.37-4.34-8.8-9.35-10.4-15.11a2.3,2.3,0,0,1,3.31-2.64l1.89,1a5.26,5.26,0,0,0,7.38-2.58c4-9.81,1.8-22.1-5.85-29.54-3.58-3.47-8.14-5.95-11.09-10a12.14,12.14,0,0,1-2.33-7.32,2.55,2.55,0,0,1,4.43-1.58c2.19,2.17,6.22,3,8.89,1.12,4.15-2.88,4.67-9,2.83-13.71s-5.5-8.39-8.58-12.38a61.65,61.65,0,0,1-12.05-28.07,1.93,1.93,0,0,1,2.79-2l6,3.19a3.29,3.29,0,0,0,4.77-2.32,11.38,11.38,0,0,0-1.32-7.76c-1.36-2.75-3.19-5.28-4.26-8.18a11.69,11.69,0,0,1-.67-5.73,3.66,3.66,0,0,1,5.37-2.6c1.29.7,2.55,1.6,4,1.62a5,5,0,0,0,3.55-1.8,19.08,19.08,0,0,0,2.19-3.46c1.66-2.9,3.6-6.08,6.75-7.2,3.78-1.35,6.08.3,9.13,1.64a9.65,9.65,0,0,1,3.62,2.85,4.79,4.79,0,0,0,7.56-.05,1.78,1.78,0,0,1,3.18,1.13l-.25,35.44a6.74,6.74,0,0,0,3.09,5.58c1.76,1.24,3.8,4.37,6.28,3.65,1.51-.45,2.23-2.14,2.83-3.59s1.66-3.07,3.24-3.05,2.61,1.75,3,3.32c.95,3.8.28,7.8-.66,11.6s-2.21,7.56-2.47,11.47a14.84,14.84,0,0,0,2.38,9.42,2.42,2.42,0,0,0,3.43.48c3.16-2.56,6.88-9.58,6.88-9.58a1.78,1.78,0,0,1,3.1,1.13l1.49,41.21a1.86,1.86,0,0,0,3.24,1.2l5.87-6.49a3.26,3.26,0,0,1,5.64,2.61l-6.13,48.85a6.34,6.34,0,0,0,2.63,6.12c4.53,3,8.64-2.4,10.29-6.93.93-2.54,2.23-5.46,4.1-7.27a2.11,2.11,0,0,1,3.52,2l-11.83,48.62a1.88,1.88,0,0,0,2.31,2.25,14.31,14.31,0,0,0,7.63-5.42,3.62,3.62,0,0,1,5.79,0A14.09,14.09,0,0,1,924.19,477.6Z"/><path class="cls-1" d="M408.66,482.24s37.21,49.21,58.8,83.4c19.47,30.84,77,77.7,116.73,93.23-.5,1.29-1,2.62-1.49,3.92a86,86,0,0,0-36.79-4.48c-5.9.56-12,1.74-17.68.11a14,14,0,0,1-9.07-7.89,3.63,3.63,0,0,1,3-4.93,14.24,14.24,0,0,0,8.6-3.68,1.86,1.86,0,0,0-.71-3.13l-47.65-15.27a2.12,2.12,0,0,1,.13-4.06c2.52-.65,5.69-.24,8.34.3,4.72,1,11.44.25,11.28-5.17a6.33,6.33,0,0,0-3.85-5.43L453.46,588.9a3.25,3.25,0,0,1,.73-6.17l8.59-1.63a1.86,1.86,0,0,0,.67-3.38L429.06,555a1.78,1.78,0,0,1,.66-3.23s7.93.48,11.76-.88a2.4,2.4,0,0,0,1.38-3.17,14.73,14.73,0,0,0-6.8-6.95c-3.47-1.83-7.33-2.72-11.07-3.88s-7.5-2.69-10.24-5.49c-1.12-1.16-2.08-2.91-1.25-4.29s2.72-1.4,4.29-1.18,3.36.52,4.54-.54c1.9-1.74.29-5.11.16-7.26a6.78,6.78,0,0,0-3.15-5.55L389,494.26a1.78,1.78,0,0,1,.71-3.31,4.79,4.79,0,0,0,4-6.42,9.53,9.53,0,0,1-.54-4.57c.45-3.3.24-6.12,3.36-8.64,2.59-2.11,6.33-2.11,9.67-2a19.28,19.28,0,0,0,4.09-.08,4.93,4.93,0,0,0,3.4-2.09c.74-1.27.63-2.82.71-4.27a3.66,3.66,0,0,1,5-3.23,11.57,11.57,0,0,1,4.53,3.56c1.93,2.43,3.12,5.31,4.76,7.9a11.32,11.32,0,0,0,5.94,5.17,3.28,3.28,0,0,0,4.46-2.85l.43-6.82a1.93,1.93,0,0,1,3.16-1.34,61.6,61.6,0,0,1,17.66,24.92c1.79,4.7,3.06,9.74,6.08,13.78s8.55,6.77,13.18,4.74c3-1.31,4.39-5.17,3.68-8.18a2.55,2.55,0,0,1,3.66-2.95,12.12,12.12,0,0,1,5,5.81c1.88,4.61,1.62,9.8,2.72,14.65,2.36,10.42,11.71,18.67,22.14,20.41a5.26,5.26,0,0,0,6.05-5l.11-2.15a2.3,2.3,0,0,1,4-1.45c4.09,4.36,6.05,10.77,7.47,16.76,1.3,5.64,2.63,11.67,5.64,16.46a7.38,7.38,0,0,0,11,2,11.37,11.37,0,0,0,2.75-3.49c1-2,1.26-4.13,2.05-6.13s2.31-4,4.44-4.31a5.13,5.13,0,0,1,4.58,1.92,11.87,11.87,0,0,1,2.22,6.33,30.93,30.93,0,0,1,.09,5.53c-.43,5.56-1.62,12.17.8,17.68,1.68,3.82,5.42,6.75,9.58,6.34a3.76,3.76,0,0,0,4.65-3.36,7.93,7.93,0,0,1,7.22-6.76c5.1-.07,9.3,4,12,8.39s4.42,9.31,7.95,13a29.32,29.32,0,0,0,6.33,4.76q-4.26,5.24-8.16,10.79c-21.88-7.51-67.5-24.51-78.79-39.37C513.67,556.65,457.87,491.23,408.66,482.24Z"/><path class="cls-4" d="M574.06,773.92c-88.39-74.87-220.6-71.46-220.6-71.46,52.53-20.91,180.46,2.82,217.69,10.42a200.9,200.9,0,0,0-1.07,20.78A203.9,203.9,0,0,0,574.06,773.92Z"/><path class="cls-4" d="M607.47,615.75a202.51,202.51,0,0,0-23.28,43.12c-39.7-15.53-97.26-62.39-116.73-93.23-21.59-34.19-58.8-83.4-58.8-83.4,49.21,9,105,74.41,120,94.14C540,591.24,585.59,608.24,607.47,615.75Z"/><path class="cls-4" d="M895.45,527H846c5.06-23,14.72-74.6,8-91.79-9-23.1-35.7-104.83-17.71-151.5,0,0,22.57,57.41,40.49,93.67C892.78,409.85,902.66,484.84,895.45,527Z"/><path class="cls-4" d="M707.05,540.52a203.34,203.34,0,0,0-55.46,29.68,215.48,215.48,0,0,1-6.52-53.15c0-39-45.59-94.81-49.19-126.62s5.4-44.39,5.4-44.39,14.39,25.8,31.81,52.19,49.78,65.41,58.8,80.4C698.48,489.61,708.75,514.38,707.05,540.52Z"/><path class="cls-4" d="M1078.91,520c-.47,17.94,1.38,40.83-2.26,55.93a203,203,0,0,0-55.16-32.65c1.85-23.9,8.12-64.93,29.21-90.49,31.2-37.8,46.8-61.19,54-78s21-27.61,21-27.61,13.8,44.41-7.2,73.22S1079.51,496.65,1078.91,520Z"/><path class="cls-4" d="M1318.31,481.66c-1.07,1.64-69.76,106.89-90,119.4-18.18,11.24-48.2,44.93-90.3,61a201.28,201.28,0,0,0-24.38-46.17c18.5-2.71,45.09-8,61.89-19.64,27.59-19.19,65.28-84,95.93-93Z"/><path class="cls-4" d="M1366.92,697.05s-112.81,19.8-132,27c-16.9,6.35-57,39.13-87.65,48.14a204.81,204.81,0,0,0,3.64-38.54,207.51,207.51,0,0,0-1.43-24.44C1190.43,701.34,1309.81,680.81,1366.92,697.05Z"/><path class="cls-5" d="M1150.75,731.58a205.56,205.56,0,0,1-3.64,38.54,195.52,195.52,0,0,1-5.59,22.4A205,205,0,0,1,1042.76,912c-5.13,2.76-10.41,5.33-15.8,7.62a202.57,202.57,0,0,1-67.82,16.16c-4.29.31-8.65.44-13,.44H774.51c-.5,0-1,0-1.53,0a203.08,203.08,0,0,1-86.76-20A205.17,205.17,0,0,1,581.31,799a198.69,198.69,0,0,1-7.41-27.18,204,204,0,0,1-4-40.27A201.38,201.38,0,0,1,571,710.79c.61-6.3,1.55-12.5,2.74-18.62a200.35,200.35,0,0,1,8.81-31.45c.49-1.31,1-2.63,1.5-3.93a202.75,202.75,0,0,1,23.28-43.12c2.59-3.69,5.32-7.3,8.16-10.79a201.48,201.48,0,0,1,14.37-16q6.61-6.63,13.77-12.6c2.57-2.14,5.16-4.19,7.8-6.18a202.8,202.8,0,0,1,55.48-29.69c2.62-1,5.29-1.81,8-2.62A203.42,203.42,0,0,1,774.51,527H946.12a204,204,0,0,1,66.6,11.08c2.89,1,5.77,2.06,8.6,3.19a203,203,0,0,1,55.16,32.65c3.3,2.69,6.48,5.51,9.58,8.42a204.28,204.28,0,0,1,22.09,24.28q2.74,3.54,5.32,7.22A201.81,201.81,0,0,1,1137.85,660c.24.63.48,1.27.71,1.9a202.35,202.35,0,0,1,9.59,37.13c.44,2.69.83,5.42,1.16,8.14A207.63,207.63,0,0,1,1150.75,731.58Z"/></svg>